<mxfile host="65bd71144e">
    <diagram id="vIdJV89icQpBQxPIXVyk" name="Page-1">
        <mxGraphModel dx="986" dy="427" grid="1" gridSize="10" guides="1" tooltips="1" connect="1" arrows="1" fold="1" page="1" pageScale="1" pageWidth="850" pageHeight="1100" math="0" shadow="0">
            <root>
                <mxCell id="0"/>
                <mxCell id="1" parent="0"/>
                <mxCell id="64" value="Visionneur" style="shape=umlActor;verticalLabelPosition=bottom;verticalAlign=top;html=1;" parent="1" vertex="1">
                    <mxGeometry x="50" y="192" width="30" height="58" as="geometry"/>
                </mxCell>
                <mxCell id="65" value="Parcourir les liste des événements" style="ellipse;whiteSpace=wrap;html=1;" parent="1" vertex="1">
                    <mxGeometry x="350" y="82" width="140" height="50" as="geometry"/>
                </mxCell>
                <mxCell id="66" value="Consulter les détails des évenements" style="ellipse;whiteSpace=wrap;html=1;" parent="1" vertex="1">
                    <mxGeometry x="350" y="142" width="140" height="50" as="geometry"/>
                </mxCell>
                <mxCell id="67" value="Gérer les événements" style="ellipse;whiteSpace=wrap;html=1;" parent="1" vertex="1">
                    <mxGeometry x="365" y="910" width="140" height="50" as="geometry"/>
                </mxCell>
                <mxCell id="68" value="Filtrer les événements" style="ellipse;whiteSpace=wrap;html=1;" parent="1" vertex="1">
                    <mxGeometry x="355" y="220" width="140" height="50" as="geometry"/>
                </mxCell>
                <mxCell id="122" style="edgeStyle=none;html=1;exitX=0.5;exitY=0;exitDx=0;exitDy=0;entryX=0.5;entryY=1;entryDx=0;entryDy=0;dashed=1;" parent="1" source="69" target="121" edge="1">
                    <mxGeometry relative="1" as="geometry"/>
                </mxCell>
                <mxCell id="123" value="&#10;&lt;span style=&quot;color: rgb(240, 240, 240); font-family: Helvetica; font-size: 11px; font-style: normal; font-variant-ligatures: normal; font-variant-caps: normal; font-weight: 400; letter-spacing: normal; orphans: 2; text-align: center; text-indent: 0px; text-transform: none; widows: 2; word-spacing: 0px; -webkit-text-stroke-width: 0px; background-color: rgb(24, 20, 29); text-decoration-thickness: initial; text-decoration-style: initial; text-decoration-color: initial; float: none; display: inline !important;&quot;&gt;INCLUDE&lt;/span&gt;&#10;&#10;" style="edgeLabel;html=1;align=center;verticalAlign=middle;resizable=0;points=[];rotation=90;" parent="122" vertex="1" connectable="0">
                    <mxGeometry x="0.3241" y="-1" relative="1" as="geometry">
                        <mxPoint x="-11" y="12" as="offset"/>
                    </mxGeometry>
                </mxCell>
                <mxCell id="69" value="Se connecter" style="ellipse;whiteSpace=wrap;html=1;" parent="1" vertex="1">
                    <mxGeometry x="690" y="622" width="140" height="50" as="geometry"/>
                </mxCell>
                <mxCell id="70" value="spectator" style="shape=umlActor;verticalLabelPosition=bottom;verticalAlign=top;html=1;" parent="1" vertex="1">
                    <mxGeometry x="41" y="505" width="30" height="60" as="geometry"/>
                </mxCell>
                <mxCell id="71" value="Rechercher les événements" style="ellipse;whiteSpace=wrap;html=1;" parent="1" vertex="1">
                    <mxGeometry x="360" y="290" width="140" height="40" as="geometry"/>
                </mxCell>
                <mxCell id="72" value="Reserver une place pour l'événement" style="ellipse;whiteSpace=wrap;html=1;" parent="1" vertex="1">
                    <mxGeometry x="350" y="430" width="160" height="60" as="geometry"/>
                </mxCell>
                <mxCell id="73" value="Modifier compte" style="ellipse;whiteSpace=wrap;html=1;" parent="1" vertex="1">
                    <mxGeometry x="350" y="525" width="140" height="50" as="geometry"/>
                </mxCell>
                <mxCell id="74" value="Supprimer compte" style="ellipse;whiteSpace=wrap;html=1;" parent="1" vertex="1">
                    <mxGeometry x="340" y="600" width="170" height="50" as="geometry"/>
                </mxCell>
                <mxCell id="75" value="Organisateur" style="shape=umlActor;verticalLabelPosition=bottom;verticalAlign=top;html=1;" parent="1" vertex="1">
                    <mxGeometry x="50" y="922" width="30" height="60" as="geometry"/>
                </mxCell>
                <mxCell id="76" value="Crééer un nouvel événement" style="ellipse;whiteSpace=wrap;html=1;" parent="1" vertex="1">
                    <mxGeometry x="360" y="760" width="140" height="70" as="geometry"/>
                </mxCell>
                <mxCell id="77" value="Accès à des statistiques" style="ellipse;whiteSpace=wrap;html=1;" parent="1" vertex="1">
                    <mxGeometry x="355" y="830" width="140" height="70" as="geometry"/>
                </mxCell>
                <mxCell id="78" value="" style="endArrow=none;html=1;exitX=0.5;exitY=0.5;exitDx=0;exitDy=0;exitPerimeter=0;entryX=0.01;entryY=0.388;entryDx=0;entryDy=0;entryPerimeter=0;" parent="1" source="75" target="76" edge="1">
                    <mxGeometry width="50" height="50" relative="1" as="geometry">
                        <mxPoint x="110" y="982" as="sourcePoint"/>
                        <mxPoint x="160" y="932" as="targetPoint"/>
                    </mxGeometry>
                </mxCell>
                <mxCell id="79" value="" style="endArrow=none;html=1;exitX=0.5;exitY=0.5;exitDx=0;exitDy=0;exitPerimeter=0;" parent="1" source="75" target="77" edge="1">
                    <mxGeometry width="50" height="50" relative="1" as="geometry">
                        <mxPoint x="75" y="1162" as="sourcePoint"/>
                        <mxPoint x="376.4000000000001" y="1069.16" as="targetPoint"/>
                    </mxGeometry>
                </mxCell>
                <mxCell id="80" value="" style="endArrow=none;html=1;entryX=0;entryY=0.5;entryDx=0;entryDy=0;" parent="1" target="73" edge="1">
                    <mxGeometry width="50" height="50" relative="1" as="geometry">
                        <mxPoint x="70" y="532" as="sourcePoint"/>
                        <mxPoint x="360" y="727" as="targetPoint"/>
                    </mxGeometry>
                </mxCell>
                <mxCell id="81" value="" style="endArrow=none;html=1;entryX=0;entryY=0.5;entryDx=0;entryDy=0;" parent="1" target="74" edge="1">
                    <mxGeometry width="50" height="50" relative="1" as="geometry">
                        <mxPoint x="70" y="532" as="sourcePoint"/>
                        <mxPoint x="367.30941457255904" y="808.1225232209979" as="targetPoint"/>
                        <Array as="points">
                            <mxPoint x="70" y="532"/>
                        </Array>
                    </mxGeometry>
                </mxCell>
                <mxCell id="82" value="" style="endArrow=none;html=1;entryX=0;entryY=0.5;entryDx=0;entryDy=0;exitX=0.5;exitY=0.5;exitDx=0;exitDy=0;exitPerimeter=0;" parent="1" source="64" target="71" edge="1">
                    <mxGeometry width="50" height="50" relative="1" as="geometry">
                        <mxPoint x="110" y="632" as="sourcePoint"/>
                        <mxPoint x="160" y="582" as="targetPoint"/>
                    </mxGeometry>
                </mxCell>
                <mxCell id="83" value="" style="endArrow=none;html=1;exitX=0.5;exitY=0.5;exitDx=0;exitDy=0;exitPerimeter=0;" parent="1" source="70" target="72" edge="1">
                    <mxGeometry width="50" height="50" relative="1" as="geometry">
                        <mxPoint x="75" y="542" as="sourcePoint"/>
                        <mxPoint x="360" y="472" as="targetPoint"/>
                    </mxGeometry>
                </mxCell>
                <mxCell id="84" value="" style="endArrow=none;html=1;entryX=0;entryY=0.5;entryDx=0;entryDy=0;exitX=0.5;exitY=0.5;exitDx=0;exitDy=0;exitPerimeter=0;" parent="1" source="64" target="65" edge="1">
                    <mxGeometry width="50" height="50" relative="1" as="geometry">
                        <mxPoint x="110" y="282" as="sourcePoint"/>
                        <mxPoint x="160" y="232" as="targetPoint"/>
                    </mxGeometry>
                </mxCell>
                <mxCell id="85" value="" style="endArrow=none;html=1;exitX=0.5;exitY=0.5;exitDx=0;exitDy=0;exitPerimeter=0;" parent="1" source="64" target="66" edge="1">
                    <mxGeometry width="50" height="50" relative="1" as="geometry">
                        <mxPoint x="75" y="232" as="sourcePoint"/>
                        <mxPoint x="360" y="116.99999999999989" as="targetPoint"/>
                    </mxGeometry>
                </mxCell>
                <mxCell id="86" value="" style="endArrow=none;html=1;entryX=0;entryY=0.5;entryDx=0;entryDy=0;" parent="1" target="67" edge="1">
                    <mxGeometry width="50" height="50" relative="1" as="geometry">
                        <mxPoint x="70" y="960" as="sourcePoint"/>
                        <mxPoint x="365.6443755328596" y="186.8350788222208" as="targetPoint"/>
                    </mxGeometry>
                </mxCell>
                <mxCell id="87" value="" style="endArrow=none;html=1;entryX=0;entryY=0.5;entryDx=0;entryDy=0;exitX=0.5;exitY=0.5;exitDx=0;exitDy=0;exitPerimeter=0;" parent="1" source="64" target="68" edge="1">
                    <mxGeometry width="50" height="50" relative="1" as="geometry">
                        <mxPoint x="70" y="532" as="sourcePoint"/>
                        <mxPoint x="371.8398477787214" y="303.0879370101925" as="targetPoint"/>
                    </mxGeometry>
                </mxCell>
                <mxCell id="88" value="" style="endArrow=block;dashed=1;endFill=0;endSize=12;html=1;exitX=1;exitY=0.5;exitDx=0;exitDy=0;" parent="1" source="67" edge="1">
                    <mxGeometry width="160" relative="1" as="geometry">
                        <mxPoint x="500" y="181.9999999999999" as="sourcePoint"/>
                        <mxPoint x="710.0000000000005" y="670" as="targetPoint"/>
                        <Array as="points">
                            <mxPoint x="690" y="690"/>
                        </Array>
                    </mxGeometry>
                </mxCell>
                <mxCell id="89" value="" style="endArrow=block;dashed=1;endFill=0;endSize=12;html=1;exitX=1;exitY=0.5;exitDx=0;exitDy=0;" parent="1" source="72" edge="1">
                    <mxGeometry width="160" relative="1" as="geometry">
                        <mxPoint x="505" y="507.6" as="sourcePoint"/>
                        <mxPoint x="725.3300325817104" y="622.0021323020419" as="targetPoint"/>
                        <Array as="points">
                            <mxPoint x="600" y="530"/>
                        </Array>
                    </mxGeometry>
                </mxCell>
                <mxCell id="90" value="" style="endArrow=block;dashed=1;endFill=0;endSize=12;html=1;exitX=1;exitY=0.5;exitDx=0;exitDy=0;entryX=-0.017;entryY=0.309;entryDx=0;entryDy=0;entryPerimeter=0;" parent="1" source="73" target="69" edge="1">
                    <mxGeometry width="160" relative="1" as="geometry">
                        <mxPoint x="500" y="727" as="sourcePoint"/>
                        <mxPoint x="683.9200000000001" y="665.75" as="targetPoint"/>
                    </mxGeometry>
                </mxCell>
                <mxCell id="91" value="" style="endArrow=block;dashed=1;endFill=0;endSize=12;html=1;entryX=0.006;entryY=0.754;entryDx=0;entryDy=0;entryPerimeter=0;" parent="1" target="69" edge="1">
                    <mxGeometry width="160" relative="1" as="geometry">
                        <mxPoint x="510" y="625" as="sourcePoint"/>
                        <mxPoint x="700.502525316942" y="674.6776695296635" as="targetPoint"/>
                    </mxGeometry>
                </mxCell>
                <mxCell id="92" value="" style="endArrow=block;dashed=1;endFill=0;endSize=12;html=1;exitX=1;exitY=0.5;exitDx=0;exitDy=0;entryX=0.059;entryY=0.781;entryDx=0;entryDy=0;entryPerimeter=0;" parent="1" source="76" target="69" edge="1">
                    <mxGeometry width="160" relative="1" as="geometry">
                        <mxPoint x="505" y="937" as="sourcePoint"/>
                        <mxPoint x="750.0000000000005" y="682" as="targetPoint"/>
                    </mxGeometry>
                </mxCell>
                <mxCell id="93" value="" style="endArrow=block;dashed=1;endFill=0;endSize=12;html=1;exitX=0.992;exitY=0.353;exitDx=0;exitDy=0;exitPerimeter=0;entryX=0.115;entryY=0.85;entryDx=0;entryDy=0;entryPerimeter=0;" parent="1" source="77" target="69" edge="1">
                    <mxGeometry width="160" relative="1" as="geometry">
                        <mxPoint x="515" y="1077" as="sourcePoint"/>
                        <mxPoint x="779.96" y="672" as="targetPoint"/>
                    </mxGeometry>
                </mxCell>
                <mxCell id="94" value="" style="endArrow=classic;html=1;" parent="1" edge="1">
                    <mxGeometry width="50" height="50" relative="1" as="geometry">
                        <mxPoint x="65" y="497" as="sourcePoint"/>
                        <mxPoint x="65" y="272" as="targetPoint"/>
                    </mxGeometry>
                </mxCell>
                <mxCell id="95" value="" style="endArrow=classic;html=1;" parent="1" edge="1">
                    <mxGeometry width="50" height="50" relative="1" as="geometry">
                        <mxPoint x="65" y="900" as="sourcePoint"/>
                        <mxPoint x="65" y="610" as="targetPoint"/>
                    </mxGeometry>
                </mxCell>
                <mxCell id="96" value="Evento" style="shape=umlFrame;whiteSpace=wrap;html=1;width=100;height=30;fontStyle=1" parent="1" vertex="1">
                    <mxGeometry x="130" y="22" width="720" height="1380" as="geometry"/>
                </mxCell>
                <mxCell id="97" value="Admin" style="shape=umlActor;verticalLabelPosition=bottom;verticalAlign=top;html=1;" parent="1" vertex="1">
                    <mxGeometry x="60" y="1192" width="30" height="60" as="geometry"/>
                </mxCell>
                <mxCell id="98" value="" style="endArrow=classic;html=1;" parent="1" edge="1">
                    <mxGeometry width="50" height="50" relative="1" as="geometry">
                        <mxPoint x="71" y="1140" as="sourcePoint"/>
                        <mxPoint x="71.09" y="1014" as="targetPoint"/>
                    </mxGeometry>
                </mxCell>
                <mxCell id="99" value="Valider les évenemnts créés" style="ellipse;whiteSpace=wrap;html=1;" parent="1" vertex="1">
                    <mxGeometry x="365" y="1260" width="140" height="50" as="geometry"/>
                </mxCell>
                <mxCell id="100" value="Gérer les utilisateurs" style="ellipse;whiteSpace=wrap;html=1;" parent="1" vertex="1">
                    <mxGeometry x="360" y="1110" width="140" height="70" as="geometry"/>
                </mxCell>
                <mxCell id="101" value="Gérer les catégories des évenements" style="ellipse;whiteSpace=wrap;html=1;" parent="1" vertex="1">
                    <mxGeometry x="360" y="1180" width="140" height="70" as="geometry"/>
                </mxCell>
                <mxCell id="102" value="Accès à des statistiques" style="ellipse;whiteSpace=wrap;html=1;" parent="1" vertex="1">
                    <mxGeometry x="365" y="1332" width="140" height="70" as="geometry"/>
                </mxCell>
                <mxCell id="103" value="" style="endArrow=none;html=1;entryX=0;entryY=0.5;entryDx=0;entryDy=0;" parent="1" target="100" edge="1">
                    <mxGeometry width="50" height="50" relative="1" as="geometry">
                        <mxPoint x="90" y="1220" as="sourcePoint"/>
                        <mxPoint x="376.4000000000001" y="1052.0000000000002" as="targetPoint"/>
                    </mxGeometry>
                </mxCell>
                <mxCell id="104" value="" style="endArrow=none;html=1;entryX=0;entryY=0.5;entryDx=0;entryDy=0;" parent="1" target="101" edge="1">
                    <mxGeometry width="50" height="50" relative="1" as="geometry">
                        <mxPoint x="90" y="1220" as="sourcePoint"/>
                        <mxPoint x="370" y="1155" as="targetPoint"/>
                    </mxGeometry>
                </mxCell>
                <mxCell id="105" value="" style="endArrow=none;html=1;entryX=0;entryY=0.5;entryDx=0;entryDy=0;" parent="1" target="99" edge="1">
                    <mxGeometry width="50" height="50" relative="1" as="geometry">
                        <mxPoint x="90" y="1220" as="sourcePoint"/>
                        <mxPoint x="370" y="1225" as="targetPoint"/>
                    </mxGeometry>
                </mxCell>
                <mxCell id="106" value="" style="endArrow=none;html=1;entryX=0;entryY=0.5;entryDx=0;entryDy=0;" parent="1" target="102" edge="1">
                    <mxGeometry width="50" height="50" relative="1" as="geometry">
                        <mxPoint x="90" y="1220" as="sourcePoint"/>
                        <mxPoint x="360" y="1360" as="targetPoint"/>
                    </mxGeometry>
                </mxCell>
                <mxCell id="107" value="" style="endArrow=block;dashed=1;endFill=0;endSize=12;html=1;exitX=1;exitY=0.5;exitDx=0;exitDy=0;" parent="1" edge="1">
                    <mxGeometry width="160" relative="1" as="geometry">
                        <mxPoint x="500" y="1149.5" as="sourcePoint"/>
                        <mxPoint x="740" y="680" as="targetPoint"/>
                        <Array as="points">
                            <mxPoint x="640" y="890"/>
                        </Array>
                    </mxGeometry>
                </mxCell>
                <mxCell id="108" value="" style="endArrow=block;dashed=1;endFill=0;endSize=12;html=1;exitX=1;exitY=0.5;exitDx=0;exitDy=0;entryX=0.5;entryY=1;entryDx=0;entryDy=0;" parent="1" target="69" edge="1">
                    <mxGeometry width="160" relative="1" as="geometry">
                        <mxPoint x="495" y="1229.5" as="sourcePoint"/>
                        <mxPoint x="735" y="760" as="targetPoint"/>
                        <Array as="points">
                            <mxPoint x="650" y="985"/>
                            <mxPoint x="720" y="830"/>
                        </Array>
                    </mxGeometry>
                </mxCell>
                <mxCell id="109" value="" style="endArrow=block;dashed=1;endFill=0;endSize=12;html=1;exitX=1;exitY=0.5;exitDx=0;exitDy=0;entryX=0.643;entryY=0.96;entryDx=0;entryDy=0;entryPerimeter=0;" parent="1" target="69" edge="1">
                    <mxGeometry width="160" relative="1" as="geometry">
                        <mxPoint x="505" y="1287.5" as="sourcePoint"/>
                        <mxPoint x="770" y="730" as="targetPoint"/>
                        <Array as="points">
                            <mxPoint x="660" y="1043"/>
                            <mxPoint x="730" y="888"/>
                        </Array>
                    </mxGeometry>
                </mxCell>
                <mxCell id="110" value="" style="endArrow=block;dashed=1;endFill=0;endSize=12;html=1;exitX=1;exitY=0.5;exitDx=0;exitDy=0;entryX=0.744;entryY=1.025;entryDx=0;entryDy=0;entryPerimeter=0;" parent="1" target="69" edge="1">
                    <mxGeometry width="160" relative="1" as="geometry">
                        <mxPoint x="505" y="1367.5" as="sourcePoint"/>
                        <mxPoint x="770" y="810" as="targetPoint"/>
                        <Array as="points">
                            <mxPoint x="660" y="1123"/>
                            <mxPoint x="730" y="968"/>
                            <mxPoint x="780" y="820"/>
                        </Array>
                    </mxGeometry>
                </mxCell>
                <mxCell id="111" value="INCLUDE" style="edgeLabel;html=1;align=center;verticalAlign=middle;resizable=0;points=[];rotation=30;" parent="1" vertex="1" connectable="0">
                    <mxGeometry x="611.0007599661488" y="552.0020765228835" as="geometry">
                        <mxPoint x="-14.830127018922191" y="-15.686533479473212" as="offset"/>
                    </mxGeometry>
                </mxCell>
                <mxCell id="112" value="INCLUDE" style="edgeLabel;html=1;align=center;verticalAlign=middle;resizable=0;points=[];rotation=30;" parent="1" vertex="1" connectable="0">
                    <mxGeometry x="590.0007599661488" y="610.0020765228835" as="geometry">
                        <mxPoint x="-14.830127018922191" y="-15.686533479473212" as="offset"/>
                    </mxGeometry>
                </mxCell>
                <mxCell id="113" value="INCLUDE" style="edgeLabel;html=1;align=center;verticalAlign=middle;resizable=0;points=[];rotation=10;" parent="1" vertex="1" connectable="0">
                    <mxGeometry x="590.0007599661488" y="656.0020765228835" as="geometry">
                        <mxPoint x="-14.830127018922191" y="-15.686533479473212" as="offset"/>
                    </mxGeometry>
                </mxCell>
                <mxCell id="114" value="INCLUDE" style="edgeLabel;html=1;align=center;verticalAlign=middle;resizable=0;points=[];rotation=-25;" parent="1" vertex="1" connectable="0">
                    <mxGeometry x="611.0007599661488" y="740.0020765228835" as="geometry">
                        <mxPoint x="-14.830127018922191" y="-15.686533479473212" as="offset"/>
                    </mxGeometry>
                </mxCell>
                <mxCell id="115" value="INCLUDE" style="edgeLabel;html=1;align=center;verticalAlign=middle;resizable=0;points=[];rotation=-45;" parent="1" vertex="1" connectable="0">
                    <mxGeometry x="630.0007599661488" y="754.0020765228835" as="geometry">
                        <mxPoint x="-14.830127018922191" y="-15.686533479473212" as="offset"/>
                    </mxGeometry>
                </mxCell>
                <mxCell id="116" value="INCLUDE" style="edgeLabel;html=1;align=center;verticalAlign=middle;resizable=0;points=[];rotation=-50;" parent="1" vertex="1" connectable="0">
                    <mxGeometry x="640.0007599661488" y="780.0020765228835" as="geometry">
                        <mxPoint x="-14.830127018922191" y="-15.686533479473212" as="offset"/>
                    </mxGeometry>
                </mxCell>
                <mxCell id="117" value="INCLUDE" style="edgeLabel;html=1;align=center;verticalAlign=middle;resizable=0;points=[];rotation=-60;" parent="1" vertex="1" connectable="0">
                    <mxGeometry x="690.0007599661488" y="820.0020765228835" as="geometry">
                        <mxPoint x="-14.830127018922191" y="-15.686533479473212" as="offset"/>
                    </mxGeometry>
                </mxCell>
                <mxCell id="118" value="INCLUDE" style="edgeLabel;html=1;align=center;verticalAlign=middle;resizable=0;points=[];rotation=-65;" parent="1" vertex="1" connectable="0">
                    <mxGeometry x="730.0007599661488" y="840.0020765228835" as="geometry">
                        <mxPoint x="-14.830127018922191" y="-15.686533479473212" as="offset"/>
                    </mxGeometry>
                </mxCell>
                <mxCell id="119" value="INCLUDE" style="edgeLabel;html=1;align=center;verticalAlign=middle;resizable=0;points=[];rotation=-80;" parent="1" vertex="1" connectable="0">
                    <mxGeometry x="760.0007599661488" y="820.0020765228835" as="geometry">
                        <mxPoint x="-14.830127018922191" y="-15.686533479473212" as="offset"/>
                    </mxGeometry>
                </mxCell>
                <mxCell id="120" value="INCLUDE" style="edgeLabel;html=1;align=center;verticalAlign=middle;resizable=0;points=[];rotation=-80;" parent="1" vertex="1" connectable="0">
                    <mxGeometry x="790.0007599661488" y="830.0020765228835" as="geometry">
                        <mxPoint x="-14.830127018922191" y="-15.686533479473212" as="offset"/>
                    </mxGeometry>
                </mxCell>
                <mxCell id="121" value="S'incrire" style="ellipse;whiteSpace=wrap;html=1;" parent="1" vertex="1">
                    <mxGeometry x="680" y="380" width="140" height="50" as="geometry"/>
                </mxCell>
            </root>
        </mxGraphModel>
    </diagram>
</mxfile>